<svg version="1.1" id="Layer_1" xmlns="http://www.w3.org/2000/svg" xmlns:xlink="http://www.w3.org/1999/xlink" x="0px" y="0px"
	 width="100%" viewBox="0 0 326 65" enable-background="new 0 0 326 65" xml:space="preserve">
<path fill="#000000" opacity="1.000000" stroke="none" 
	d="
M238.000000,66.000000 
	C158.666687,66.000000 79.833359,66.000000 1.000032,66.000000 
	C1.000021,44.333351 1.000021,22.666702 1.000011,1.000041 
	C109.666626,1.000027 218.333252,1.000027 326.999908,1.000013 
	C326.999939,22.666626 326.999939,44.333252 326.999969,65.999939 
	C297.500000,66.000000 268.000000,66.000000 238.000000,66.000000 
M156.220612,56.464577 
	C156.381256,56.737156 156.619583,56.865162 157.831619,56.940208 
	C167.322296,59.045105 164.423950,51.357246 165.282425,46.442539 
	C170.985291,49.026993 176.036835,48.656540 179.778305,44.217457 
	C183.701218,39.563091 183.908096,33.921364 182.161911,28.235920 
	C180.211258,21.884748 174.545532,18.796715 168.277390,20.318235 
	C166.716858,20.697037 164.893738,20.599585 163.319504,20.206993 
	C157.803772,18.831432 155.961899,20.083670 155.974030,25.648230 
	C155.996094,35.782597 156.071823,45.916847 156.220612,56.464577 
M28.052662,48.627228 
	C32.690094,42.922607 37.365574,37.248020 41.920197,31.478031 
	C42.538338,30.694941 43.058865,29.185902 42.705269,28.462120 
	C42.331020,27.696058 40.876808,27.120682 39.862106,27.066648 
	C36.625633,26.894304 33.374207,27.002754 29.624630,27.002754 
	C31.632759,20.675827 33.410496,15.074787 35.281528,9.179803 
	C29.175743,9.179803 23.724680,9.179803 18.357664,9.179803 
	C15.868126,17.399109 13.461940,25.438623 10.993452,33.458961 
	C9.389629,38.669930 9.578559,38.962517 15.233326,38.997574 
	C17.446331,39.011295 19.659492,38.999821 21.853661,38.999821 
	C19.928112,46.000656 18.197918,52.291225 16.467724,58.581799 
	C17.133194,58.990822 17.798662,59.399845 18.464130,59.808868 
	C21.625410,56.320484 24.786690,52.832096 28.052662,48.627228 
M239.250061,12.032893 
	C237.327164,12.124380 235.404266,12.215866 233.035019,12.328588 
	C233.035019,23.285587 233.025620,33.726234 233.040314,44.166851 
	C233.045181,47.614704 235.663376,46.883999 237.704132,46.985828 
	C239.994919,47.100132 242.095154,47.030518 242.007950,43.766731 
	C241.905884,39.946964 241.538147,36.031776 242.231567,32.335434 
	C242.591995,30.414158 244.989777,28.875086 246.467224,27.163359 
	C247.642731,28.885612 249.553177,30.495758 249.836655,32.354092 
	C250.381943,35.928783 250.148499,39.650963 249.970322,43.298897 
	C249.806702,46.648830 251.651749,47.042294 254.335892,47.043892 
	C257.135254,47.045559 259.216766,46.833385 259.046997,43.135307 
	C258.826141,38.324749 259.135559,33.490540 258.936737,28.678082 
	C258.738586,23.882704 255.072815,20.217756 250.303970,20.079954 
	C247.711945,20.005053 245.101242,20.576080 242.903427,20.812290 
	C241.998474,17.977468 241.063126,15.047466 239.250061,12.032893 
M92.065819,12.014559 
	C87.690834,11.191145 85.289627,12.964297 84.283760,17.341854 
	C83.323044,21.522951 81.905624,25.603252 80.597221,29.698553 
	C79.949821,31.724909 79.096024,33.685322 78.335609,35.675571 
	C75.468918,29.629948 73.729645,23.776657 71.858139,17.965954 
	C69.706337,11.284948 68.360497,10.679610 60.963623,13.091323 
	C64.655655,23.849197 68.122787,34.696995 72.318962,45.255047 
	C72.856003,46.606289 77.187737,46.830482 79.763832,46.838459 
	C81.170380,46.842815 83.414749,45.605400 83.859367,44.402447 
	C87.472893,34.625774 90.791313,24.738310 94.043297,14.833272 
	C94.279602,14.113528 93.289223,12.991044 92.065819,12.014559 
M196.838593,26.645166 
	C198.219879,27.176189 199.601181,27.707212 200.982468,28.238235 
	C200.869904,28.811926 200.757339,29.385618 200.644775,29.959311 
	C198.638000,30.312138 196.621170,30.616329 194.626511,31.027866 
	C190.414810,31.896820 185.852585,32.342186 185.020630,37.913509 
	C184.003235,44.726711 188.591293,48.875397 196.008286,47.970779 
	C199.394196,47.557816 202.797562,47.106514 206.198639,47.056820 
	C208.945816,47.016682 210.114563,46.096989 210.025925,43.275776 
	C209.890305,38.958824 209.845245,34.627686 210.036972,30.314804 
	C210.253143,25.451624 207.959747,22.589165 203.616119,20.825829 
	C195.916122,17.699947 187.466171,21.278873 186.252396,29.647284 
	C189.899139,28.658068 193.026535,27.809734 196.838593,26.645166 
M99.833572,22.097198 
	C97.930939,25.486206 95.290123,28.672312 94.290382,32.309494 
	C92.586693,38.507748 98.021980,46.071190 104.483231,47.678829 
	C111.471535,49.417603 117.897758,45.828331 120.127670,38.952557 
	C121.954643,33.319218 121.485672,27.995316 117.130615,23.740097 
	C112.236885,18.958559 106.485153,19.007113 99.833572,22.097198 
M148.283951,28.175976 
	C149.717300,27.487827 151.150635,26.799677 153.829727,25.513439 
	C151.475357,21.853230 149.226532,18.357122 146.654953,14.359249 
	C144.665909,14.359249 142.100235,14.359249 140.907318,14.359249 
	C138.783691,16.952887 136.789978,18.460638 136.171600,20.405659 
	C135.561386,22.324932 136.078781,24.752422 136.597702,26.833212 
	C137.006607,28.472860 138.619308,29.849186 138.891846,31.477303 
	C139.298767,33.908199 139.354568,36.520630 138.927094,38.944244 
	C137.865341,44.963814 143.413803,48.805080 149.096130,47.894493 
	C150.443283,47.678612 152.451324,46.525440 152.652420,45.506744 
	C152.901077,44.247017 151.820251,41.639656 150.897675,41.427921 
	C147.493210,40.646580 148.021530,38.282074 148.008621,36.021229 
	C147.995300,33.689911 148.058334,31.358156 148.283951,28.175976 
M216.331161,43.585041 
	C219.253159,45.050953 222.066788,46.878506 225.151123,47.802605 
	C226.364120,48.166035 228.182144,46.510155 229.724640,45.773846 
	C228.838196,44.182762 228.310226,42.144386 226.994019,41.089569 
	C223.819275,38.545269 224.164841,28.854687 227.817490,26.863369 
	C230.847229,25.211647 230.577286,22.931700 228.836563,20.714550 
	C227.232300,18.671171 225.218338,16.949438 223.384842,15.086022 
	C221.709030,14.110089 218.675049,13.340424 217.287338,14.515272 
	C214.989288,16.460844 213.511475,19.547062 212.190445,22.386436 
	C211.693924,23.453690 212.331299,26.279194 212.905838,26.417562 
	C217.149200,27.439510 215.790909,30.691523 215.935867,33.268597 
	C216.113251,36.422009 216.067215,39.587978 216.331161,43.585041 
M132.996429,16.724537 
	C132.808914,14.720465 133.664108,12.259864 130.210968,11.990214 
	C126.559280,11.705061 124.801056,12.572698 124.903862,16.795177 
	C125.105202,25.064520 124.712570,33.347446 124.626938,41.625385 
	C124.609596,43.302299 124.423271,46.195705 125.074158,46.431400 
	C126.977898,47.120777 129.392517,47.180508 131.344086,46.601322 
	C132.217606,46.342075 132.897949,43.976948 132.923187,42.554314 
	C133.070206,34.264675 132.996689,25.971125 132.996429,16.724537 
z"/>
<path fill="#AEEF7B" opacity="1.000000" stroke="none" 
	d="
M28.000317,48.985466 
	C24.786690,52.832096 21.625410,56.320484 18.464130,59.808868 
	C17.798662,59.399845 17.133194,58.990822 16.467724,58.581799 
	C18.197918,52.291225 19.928112,46.000656 21.853661,38.999821 
	C19.659492,38.999821 17.446331,39.011295 15.233326,38.997574 
	C9.578559,38.962517 9.389629,38.669930 10.993452,33.458961 
	C13.461940,25.438623 15.868126,17.399109 18.357664,9.179803 
	C23.724680,9.179803 29.175743,9.179803 35.281528,9.179803 
	C33.410496,15.074787 31.632759,20.675827 29.624630,27.002754 
	C33.374207,27.002754 36.625633,26.894304 39.862106,27.066648 
	C40.876808,27.120682 42.331020,27.696058 42.705269,28.462120 
	C43.058865,29.185902 42.538338,30.694941 41.920197,31.478031 
	C37.365574,37.248020 32.690094,42.922607 28.000317,48.985466 
z"/>
<path fill="#414141" opacity="1.000000" stroke="none" 
	d="
M156.125168,56.051144 
	C156.071823,45.916847 155.996094,35.782597 155.974030,25.648230 
	C155.961899,20.083670 157.803772,18.831432 163.319504,20.206993 
	C164.893738,20.599585 166.716858,20.697037 168.277390,20.318235 
	C174.545532,18.796715 180.211258,21.884748 182.161911,28.235920 
	C183.908096,33.921364 183.701218,39.563091 179.778305,44.217457 
	C176.036835,48.656540 170.985291,49.026993 165.282425,46.442539 
	C164.423950,51.357246 167.322296,59.045105 157.270401,56.740723 
	C156.540344,56.347099 156.345673,56.183731 156.125168,56.051144 
M167.779007,27.240850 
	C164.747177,30.056469 163.720245,36.452442 166.350449,39.205933 
	C167.285416,40.184700 170.781967,40.504021 171.170166,39.892830 
	C172.499069,37.800518 173.699142,35.120495 173.566116,32.741928 
	C173.421127,30.149378 172.469742,26.964396 167.779007,27.240850 
z"/>
<path fill="#414141" opacity="1.000000" stroke="none" 
	d="
M239.688934,12.075178 
	C241.063126,15.047466 241.998474,17.977468 242.903427,20.812290 
	C245.101242,20.576080 247.711945,20.005053 250.303970,20.079954 
	C255.072815,20.217756 258.738586,23.882704 258.936737,28.678082 
	C259.135559,33.490540 258.826141,38.324749 259.046997,43.135307 
	C259.216766,46.833385 257.135254,47.045559 254.335892,47.043892 
	C251.651749,47.042294 249.806702,46.648830 249.970322,43.298897 
	C250.148499,39.650963 250.381943,35.928783 249.836655,32.354092 
	C249.553177,30.495758 247.642731,28.885612 246.467224,27.163361 
	C244.989777,28.875086 242.591995,30.414158 242.231567,32.335434 
	C241.538147,36.031776 241.905884,39.946964 242.007950,43.766731 
	C242.095154,47.030518 239.994919,47.100132 237.704132,46.985828 
	C235.663376,46.883999 233.045181,47.614704 233.040314,44.166851 
	C233.025620,33.726234 233.035019,23.285587 233.035019,12.328588 
	C235.404266,12.215866 237.327164,12.124380 239.688934,12.075178 
z"/>
<path fill="#414141" opacity="1.000000" stroke="none" 
	d="
M92.467499,12.035183 
	C93.289223,12.991044 94.279602,14.113528 94.043297,14.833272 
	C90.791313,24.738310 87.472893,34.625774 83.859367,44.402447 
	C83.414749,45.605400 81.170380,46.842815 79.763832,46.838459 
	C77.187737,46.830482 72.856003,46.606289 72.318962,45.255047 
	C68.122787,34.696995 64.655655,23.849197 60.963623,13.091323 
	C68.360497,10.679610 69.706337,11.284948 71.858139,17.965954 
	C73.729645,23.776657 75.468918,29.629948 78.335609,35.675571 
	C79.096024,33.685322 79.949821,31.724909 80.597221,29.698553 
	C81.905624,25.603252 83.323044,21.522951 84.283760,17.341854 
	C85.289627,12.964297 87.690834,11.191145 92.467499,12.035183 
z"/>
<path fill="#414141" opacity="1.000000" stroke="none" 
	d="
M196.496262,26.803284 
	C193.026535,27.809734 189.899139,28.658068 186.252396,29.647284 
	C187.466171,21.278873 195.916122,17.699947 203.616119,20.825829 
	C207.959747,22.589165 210.253143,25.451624 210.036972,30.314804 
	C209.845245,34.627686 209.890305,38.958824 210.025925,43.275776 
	C210.114563,46.096989 208.945816,47.016682 206.198639,47.056820 
	C202.797562,47.106514 199.394196,47.557816 196.008286,47.970779 
	C188.591293,48.875397 184.003235,44.726711 185.020630,37.913509 
	C185.852585,32.342186 190.414810,31.896820 194.626511,31.027866 
	C196.621170,30.616329 198.638000,30.312138 200.644775,29.959311 
	C200.757339,29.385618 200.869904,28.811926 200.982468,28.238235 
	C199.601181,27.707212 198.219879,27.176189 196.496262,26.803284 
M195.133911,41.386021 
	C199.174133,42.270164 200.545670,40.270592 200.697189,35.910847 
	C197.905945,37.297916 193.536774,35.443661 195.133911,41.386021 
z"/>
<path fill="#414141" opacity="1.000000" stroke="none" 
	d="
M100.194107,21.948753 
	C106.485153,19.007113 112.236885,18.958559 117.130615,23.740097 
	C121.485672,27.995316 121.954643,33.319218 120.127670,38.952557 
	C117.897758,45.828331 111.471535,49.417603 104.483231,47.678829 
	C98.021980,46.071190 92.586693,38.507748 94.290382,32.309494 
	C95.290123,28.672312 97.930939,25.486206 100.194107,21.948753 
M103.385567,37.690594 
	C104.184196,38.701885 104.957916,40.530460 105.786613,40.555733 
	C107.556557,40.609695 110.020638,40.293293 111.012154,39.122429 
	C113.592461,36.075394 113.495422,32.294182 111.226257,29.067877 
	C110.368607,27.848467 107.452644,26.485300 106.910767,26.931482 
	C105.237228,28.309448 103.972443,30.408911 103.110451,32.463734 
	C102.586411,33.712967 103.098946,35.397045 103.385567,37.690594 
z"/>
<path fill="#414141" opacity="1.000000" stroke="none" 
	d="
M148.185959,28.601284 
	C148.058334,31.358156 147.995300,33.689911 148.008621,36.021229 
	C148.021530,38.282074 147.493210,40.646580 150.897675,41.427921 
	C151.820251,41.639656 152.901077,44.247017 152.652420,45.506744 
	C152.451324,46.525440 150.443283,47.678612 149.096130,47.894493 
	C143.413803,48.805080 137.865341,44.963814 138.927094,38.944244 
	C139.354568,36.520630 139.298767,33.908199 138.891846,31.477303 
	C138.619308,29.849186 137.006607,28.472860 136.597702,26.833212 
	C136.078781,24.752422 135.561386,22.324932 136.171600,20.405659 
	C136.789978,18.460638 138.783691,16.952887 140.907318,14.359249 
	C142.100235,14.359249 144.665909,14.359249 146.654953,14.359249 
	C149.226532,18.357122 151.475357,21.853230 153.829727,25.513439 
	C151.150635,26.799677 149.717300,27.487827 148.185959,28.601284 
z"/>
<path fill="#414141" opacity="1.000000" stroke="none" 
	d="
M216.224472,43.166779 
	C216.067215,39.587978 216.113251,36.422009 215.935867,33.268597 
	C215.790909,30.691523 217.149200,27.439510 212.905838,26.417562 
	C212.331299,26.279194 211.693924,23.453690 212.190445,22.386436 
	C213.511475,19.547062 214.989288,16.460844 217.287338,14.515272 
	C218.675049,13.340424 221.709030,14.110089 223.384842,15.086022 
	C225.218338,16.949438 227.232300,18.671171 228.836563,20.714550 
	C230.577286,22.931700 230.847229,25.211647 227.817490,26.863369 
	C224.164841,28.854687 223.819275,38.545269 226.994019,41.089569 
	C228.310226,42.144386 228.838196,44.182762 229.724640,45.773846 
	C228.182144,46.510155 226.364120,48.166035 225.151123,47.802605 
	C222.066788,46.878506 219.253159,45.050953 216.224472,43.166779 
z"/>
<path fill="#414141" opacity="1.000000" stroke="none" 
	d="
M132.997055,17.201715 
	C132.996689,25.971125 133.070206,34.264675 132.923187,42.554314 
	C132.897949,43.976948 132.217606,46.342075 131.344086,46.601322 
	C129.392517,47.180508 126.977898,47.120777 125.074158,46.431400 
	C124.423271,46.195705 124.609596,43.302299 124.626938,41.625385 
	C124.712570,33.347446 125.105202,25.064520 124.903862,16.795177 
	C124.801056,12.572698 126.559280,11.705061 130.210968,11.990214 
	C133.664108,12.259864 132.808914,14.720465 132.997055,17.201715 
z"/>
<path fill="#484848" opacity="1.000000" stroke="none" 
	d="
M156.172882,56.257858 
	C156.345673,56.183731 156.540344,56.347099 156.822372,56.694916 
	C156.619583,56.865162 156.381256,56.737156 156.172882,56.257858 
z"/>
<path fill="#000000" opacity="1.000000" stroke="none" 
	d="
M168.168457,27.169861 
	C172.469742,26.964396 173.421127,30.149378 173.566116,32.741928 
	C173.699142,35.120495 172.499069,37.800518 171.170166,39.892830 
	C170.781967,40.504021 167.285416,40.184700 166.350449,39.205933 
	C163.720245,36.452442 164.747177,30.056469 168.168457,27.169861 
z"/>
<path fill="#000000" opacity="1.000000" stroke="none" 
	d="
M194.870789,41.122108 
	C193.536774,35.443661 197.905945,37.297916 200.697189,35.910847 
	C200.545670,40.270592 199.174133,42.270164 194.870789,41.122108 
z"/>
<path fill="#000000" opacity="1.000000" stroke="none" 
	d="
M103.265701,37.288189 
	C103.098946,35.397045 102.586411,33.712967 103.110451,32.463734 
	C103.972443,30.408911 105.237228,28.309448 106.910767,26.931482 
	C107.452644,26.485300 110.368607,27.848467 111.226257,29.067877 
	C113.495422,32.294182 113.592461,36.075394 111.012154,39.122429 
	C110.020638,40.293293 107.556557,40.609695 105.786613,40.555733 
	C104.957916,40.530460 104.184196,38.701885 103.265701,37.288189 
z"/>
</svg>